<?xml version="1.0" standalone="no"?>
<!DOCTYPE svg PUBLIC "-//W3C//DTD SVG 20010904//EN"
 "http://www.w3.org/TR/2001/REC-SVG-20010904/DTD/svg10.dtd">
<svg version="1.0" xmlns="http://www.w3.org/2000/svg"
 width="344.000000pt" height="344.000000pt" viewBox="0 0 344.000000 344.000000"
 preserveAspectRatio="xMidYMid meet">

<g transform="translate(0.000000,344.000000) scale(0.100000,-0.100000)"
fill="#ffffff" stroke="none">
<path d="M1605 3426 c-86 -25 -147 -52 -356 -160 -353 -182 -607 -277 -948
-357 l-94 -21 6 -212 c21 -750 248 -1416 668 -1956 202 -260 514 -531 770
-669 l76 -41 89 56 c448 280 840 729 1085 1239 205 428 311 877 326 1376 l6
206 -94 23 c-352 84 -567 164 -916 341 -139 70 -286 140 -325 155 -90 32 -218
41 -293 20z m216 -142 c30 -9 176 -76 324 -149 343 -170 515 -237 815 -319
l125 -34 -1 -124 c-7 -574 -203 -1204 -521 -1676 -207 -308 -508 -607 -778
-772 l-67 -41 -73 42 c-282 161 -624 507 -830 839 -214 346 -361 760 -425
1200 -22 150 -43 416 -38 484 l3 48 140 39 c300 82 507 164 847 336 114 58
233 113 265 123 72 23 143 25 214 4z"/>
</g>
</svg>